<svg xmlns="http://www.w3.org/2000/svg" viewBox="0 0 1040 600" font-family="'Brockmann','Helvetica Neue',Arial,sans-serif">
  <defs>
    <style>
      @import url('https://fonts.googleapis.com/css2?family=DM+Mono:wght@400;500&amp;display=swap');
      .mono { font-family: 'DM Mono', ui-monospace, monospace; }
      .t  { fill:#fff; font-weight:700; }
      .l  { fill:#D4D2E3; }
      .m  { fill:#9795B5; }
      .red{ fill:#E61E25; }
      .cy { fill:#35E0D8; }
      .am { fill:#E0A85A; }
    </style>
    <marker id="cap-r" markerWidth="9" markerHeight="9" refX="6" refY="3" orient="auto"><path d="M0,0 L7,3 L0,6 Z" fill="#E61E25"/></marker>
    <marker id="cap-c" markerWidth="9" markerHeight="9" refX="6" refY="3" orient="auto"><path d="M0,0 L7,3 L0,6 Z" fill="#35E0D8"/></marker>
  </defs>

  <rect width="1040" height="600" fill="#1D1D40"/>

  <!-- header -->
  <text x="50" y="46" class="mono cy" font-size="13" letter-spacing="3">~ OPEN MODELS PLAY CATCH-UP</text>
  <text x="50" y="82" class="t" font-size="26">Open weights trail the frontier &#8212; by months, not years</text>
  <text x="50" y="108" class="m" font-size="14">Running maximum ECI score for closed vs open-weight models. Each point is a new all-time high.</text>

  <!-- legend -->
  <g font-size="12.5">
    <line x1="640" y1="46" x2="668" y2="46" stroke="#E61E25" stroke-width="3"/><text x="676" y="50" class="l">closed frontier</text>
    <line x1="800" y1="46" x2="828" y2="46" stroke="#35E0D8" stroke-width="3"/><text x="836" y="50" class="l">best open-weight</text>
  </g>

  <!-- axes -->
  <line x1="100" y1="130" x2="100" y2="470" stroke="#9795B5" stroke-width="1.2"/>
  <line x1="100" y1="470" x2="980" y2="470" stroke="#9795B5" stroke-width="1.2"/>
  <line x1="100.0" y1="130" x2="100.0" y2="470" stroke="rgba(151,149,181,0.12)" stroke-width="1"/>
  <text x="100.0" y="490" class="mono m" font-size="11.5" text-anchor="middle">2023</text>
  <line x1="351.5" y1="130" x2="351.5" y2="470" stroke="rgba(151,149,181,0.12)" stroke-width="1"/>
  <text x="351.5" y="490" class="mono m" font-size="11.5" text-anchor="middle">2024</text>
  <line x1="603.7" y1="130" x2="603.7" y2="470" stroke="rgba(151,149,181,0.12)" stroke-width="1"/>
  <text x="603.7" y="490" class="mono m" font-size="11.5" text-anchor="middle">2025</text>
  <line x1="855.3" y1="130" x2="855.3" y2="470" stroke="rgba(151,149,181,0.12)" stroke-width="1"/>
  <text x="855.3" y="490" class="mono m" font-size="11.5" text-anchor="middle">2026</text>
  <line x1="100" y1="470.0" x2="980" y2="470.0" stroke="rgba(151,149,181,0.08)" stroke-width="1"/>
  <text x="92" y="474.0" class="mono m" font-size="10" text-anchor="end">90</text>
  <line x1="100" y1="424.7" x2="980" y2="424.7" stroke="rgba(151,149,181,0.08)" stroke-width="1"/>
  <text x="92" y="428.7" class="mono m" font-size="10" text-anchor="end">100</text>
  <line x1="100" y1="379.3" x2="980" y2="379.3" stroke="rgba(151,149,181,0.08)" stroke-width="1"/>
  <text x="92" y="383.3" class="mono m" font-size="10" text-anchor="end">110</text>
  <line x1="100" y1="334.0" x2="980" y2="334.0" stroke="rgba(151,149,181,0.08)" stroke-width="1"/>
  <text x="92" y="338.0" class="mono m" font-size="10" text-anchor="end">120</text>
  <line x1="100" y1="288.7" x2="980" y2="288.7" stroke="rgba(151,149,181,0.08)" stroke-width="1"/>
  <text x="92" y="292.7" class="mono m" font-size="10" text-anchor="end">130</text>
  <line x1="100" y1="243.3" x2="980" y2="243.3" stroke="rgba(151,149,181,0.08)" stroke-width="1"/>
  <text x="92" y="247.3" class="mono m" font-size="10" text-anchor="end">140</text>
  <line x1="100" y1="198.0" x2="980" y2="198.0" stroke="rgba(151,149,181,0.08)" stroke-width="1"/>
  <text x="92" y="202.0" class="mono m" font-size="10" text-anchor="end">150</text>
  <line x1="100" y1="152.7" x2="980" y2="152.7" stroke="rgba(151,149,181,0.08)" stroke-width="1"/>
  <text x="92" y="156.7" class="mono m" font-size="10" text-anchor="end">160</text>
  <polyline fill="none" stroke="#E61E25" stroke-width="2.5" points="149.6,307.0 382.5,298.7 443.2,293.6 469.4,288.7 527.3,261.6 527.3,258.4 593.4,230.5 660.9,220.4 676.1,210.4 714.0,206.5 754.0,198.0 796.0,197.0 824.9,182.4 840.8,181.1 840.8,179.0 879.4,171.3 889.0,167.9 898.7,163.0 932.5,160.8 932.5,155.6"/>
  <circle cx="149.6" cy="307.0" r="3" fill="#E61E25"/>
  <circle cx="382.5" cy="298.7" r="3" fill="#E61E25"/>
  <circle cx="443.2" cy="293.6" r="3" fill="#E61E25"/>
  <circle cx="469.4" cy="288.7" r="3" fill="#E61E25"/>
  <circle cx="527.3" cy="261.6" r="3" fill="#E61E25"/>
  <circle cx="527.3" cy="258.4" r="3" fill="#E61E25"/>
  <circle cx="593.4" cy="230.5" r="3" fill="#E61E25"/>
  <circle cx="660.9" cy="220.4" r="3" fill="#E61E25"/>
  <circle cx="676.1" cy="210.4" r="3" fill="#E61E25"/>
  <circle cx="714.0" cy="206.5" r="3" fill="#E61E25"/>
  <circle cx="754.0" cy="198.0" r="3" fill="#E61E25"/>
  <circle cx="796.0" cy="197.0" r="3" fill="#E61E25"/>
  <circle cx="824.9" cy="182.4" r="3" fill="#E61E25"/>
  <circle cx="840.8" cy="181.1" r="3" fill="#E61E25"/>
  <circle cx="840.8" cy="179.0" r="3" fill="#E61E25"/>
  <circle cx="879.4" cy="171.3" r="3" fill="#E61E25"/>
  <circle cx="889.0" cy="167.9" r="3" fill="#E61E25"/>
  <circle cx="898.7" cy="163.0" r="3" fill="#E61E25"/>
  <circle cx="932.5" cy="160.8" r="3" fill="#E61E25"/>
  <circle cx="932.5" cy="155.6" r="3" fill="#E61E25"/>
  <polyline fill="none" stroke="#35E0D8" stroke-width="2.5" points="137.2,444.5 137.2,426.5 137.2,394.9 137.2,382.4 236.4,365.1 237.8,350.6 310.2,345.8 337.1,344.4 425.3,328.5 426.0,322.0 439.0,314.0 460.4,308.1 492.1,293.0 532.1,291.4 590.0,283.4 599.6,274.5 616.8,244.0 705.0,233.4 745.0,217.0 833.9,214.0 873.2,206.1 930.4,190.7"/>
  <circle cx="137.2" cy="444.5" r="3" fill="#35E0D8"/>
  <circle cx="137.2" cy="426.5" r="3" fill="#35E0D8"/>
  <circle cx="137.2" cy="394.9" r="3" fill="#35E0D8"/>
  <circle cx="137.2" cy="382.4" r="3" fill="#35E0D8"/>
  <circle cx="236.4" cy="365.1" r="3" fill="#35E0D8"/>
  <circle cx="237.8" cy="350.6" r="3" fill="#35E0D8"/>
  <circle cx="310.2" cy="345.8" r="3" fill="#35E0D8"/>
  <circle cx="337.1" cy="344.4" r="3" fill="#35E0D8"/>
  <circle cx="425.3" cy="328.5" r="3" fill="#35E0D8"/>
  <circle cx="426.0" cy="322.0" r="3" fill="#35E0D8"/>
  <circle cx="439.0" cy="314.0" r="3" fill="#35E0D8"/>
  <circle cx="460.4" cy="308.1" r="3" fill="#35E0D8"/>
  <circle cx="492.1" cy="293.0" r="3" fill="#35E0D8"/>
  <circle cx="532.1" cy="291.4" r="3" fill="#35E0D8"/>
  <circle cx="590.0" cy="283.4" r="3" fill="#35E0D8"/>
  <circle cx="599.6" cy="274.5" r="3" fill="#35E0D8"/>
  <circle cx="616.8" cy="244.0" r="3" fill="#35E0D8"/>
  <circle cx="705.0" cy="233.4" r="3" fill="#35E0D8"/>
  <circle cx="745.0" cy="217.0" r="3" fill="#35E0D8"/>
  <circle cx="833.9" cy="214.0" r="3" fill="#35E0D8"/>
  <circle cx="873.2" cy="206.1" r="3" fill="#35E0D8"/>
  <circle cx="930.4" cy="190.7" r="3" fill="#35E0D8"/>
  <text x="155.6" y="299.0" class="mono red" font-size="10">GPT-4</text>
  <text x="449.2" y="285.6" class="mono red" font-size="10">GPT-4o</text>
  <text x="533.3" y="253.6" class="mono red" font-size="10">o1-preview</text>
  <text x="682.1" y="202.4" class="mono red" font-size="10">o3</text>
  <text x="760.0" y="190.0" class="mono red" font-size="10">GPT-5</text>
  <text x="830.9" y="174.4" class="mono red" font-size="10">Gemini 3 Pro Preview</text>
  <text x="938.5" y="147.6" class="mono red" font-size="10">GPT-5.5 Pro</text>
  <text x="143.2" y="398.4" class="mono cy" font-size="10">LLaMA-65B</text>
  <text x="242.4" y="381.1" class="mono cy" font-size="10">Llama 2-70B</text>
  <text x="498.1" y="309.0" class="mono cy" font-size="10">Llama 3.1-405B</text>
  <text x="622.8" y="260.0" class="mono cy" font-size="10">DeepSeek-R1</text>
  <text x="751.0" y="233.0" class="mono cy" font-size="10">Qwen3-235B-A22B</text>
  <text x="936.4" y="206.7" class="mono cy" font-size="10">Kimi K2.6</text>
  <text x="50" y="570" class="mono m" font-size="11">Source: Epoch AI Capabilities Index (epoch.ai/data). CC BY. Downloaded June 2026.</text>
</svg>
