<svg xmlns="http://www.w3.org/2000/svg" viewBox="0 0 1040 600" font-family="'Brockmann','Helvetica Neue',Arial,sans-serif">
  <defs>
    <style>
      @import url('https://fonts.googleapis.com/css2?family=DM+Mono:wght@400;500&amp;display=swap');
      .mono { font-family: 'DM Mono', ui-monospace, monospace; }
      .t  { fill:#fff; font-weight:700; }
      .l  { fill:#D4D2E3; }
      .m  { fill:#9795B5; }
      .red{ fill:#E61E25; }
      .cy { fill:#35E0D8; }
      .am { fill:#E0A85A; }
    </style>
  </defs>

  <rect width="1040" height="600" fill="#1D1D40"/>

  <!-- header -->
  <text x="50" y="42" class="mono cy" font-size="14" letter-spacing="3">~ THE OPEN&#8211;CLOSED GAP</text>
  <text x="50" y="78" class="t" font-size="30">Open weights trail the frontier by months, not years</text>
  <text x="50" y="104" class="m" font-size="16">Epoch Capabilities Index (ECI): running maximum. The gap is ~8 points &#8776; 4 months.</text>

  <!-- legend -->
  <g font-size="14">
    <line x1="580" y1="42" x2="612" y2="42" stroke="#E61E25" stroke-width="3"/><text x="620" y="46" class="l">closed frontier</text>
    <line x1="760" y1="42" x2="792" y2="42" stroke="#35E0D8" stroke-width="3"/><text x="800" y="46" class="l">best open-weight</text>
  </g>

  <!-- axes -->
  <line x1="110" y1="120" x2="110" y2="500" stroke="#9795B5" stroke-width="1.2"/>
  <line x1="110" y1="500" x2="990" y2="500" stroke="#9795B5" stroke-width="1.2"/>
  <text x="100" y="112" class="mono m" font-size="13" text-anchor="end">ECI &#8593;</text>
  <line x1="110.0" y1="120" x2="110.0" y2="500" stroke="rgba(151,149,181,0.15)" stroke-width="1"/>
  <text x="110.0" y="524" class="mono m" font-size="14" text-anchor="middle">2023</text>
  <line x1="361.5" y1="120" x2="361.5" y2="500" stroke="rgba(151,149,181,0.15)" stroke-width="1"/>
  <text x="361.5" y="524" class="mono m" font-size="14" text-anchor="middle">2024</text>
  <line x1="613.7" y1="120" x2="613.7" y2="500" stroke="rgba(151,149,181,0.15)" stroke-width="1"/>
  <text x="613.7" y="524" class="mono m" font-size="14" text-anchor="middle">2025</text>
  <line x1="865.3" y1="120" x2="865.3" y2="500" stroke="rgba(151,149,181,0.15)" stroke-width="1"/>
  <text x="865.3" y="524" class="mono m" font-size="14" text-anchor="middle">2026</text>
  <line x1="110" y1="449.3" x2="990" y2="449.3" stroke="rgba(151,149,181,0.10)" stroke-width="1"/>
  <text x="100" y="454.3" class="mono m" font-size="12" text-anchor="end">100</text>
  <line x1="110" y1="398.7" x2="990" y2="398.7" stroke="rgba(151,149,181,0.10)" stroke-width="1"/>
  <text x="100" y="403.7" class="mono m" font-size="12" text-anchor="end">110</text>
  <line x1="110" y1="348.0" x2="990" y2="348.0" stroke="rgba(151,149,181,0.10)" stroke-width="1"/>
  <text x="100" y="353.0" class="mono m" font-size="12" text-anchor="end">120</text>
  <line x1="110" y1="297.3" x2="990" y2="297.3" stroke="rgba(151,149,181,0.10)" stroke-width="1"/>
  <text x="100" y="302.3" class="mono m" font-size="12" text-anchor="end">130</text>
  <line x1="110" y1="246.7" x2="990" y2="246.7" stroke="rgba(151,149,181,0.10)" stroke-width="1"/>
  <text x="100" y="251.7" class="mono m" font-size="12" text-anchor="end">140</text>
  <line x1="110" y1="196.0" x2="990" y2="196.0" stroke="rgba(151,149,181,0.10)" stroke-width="1"/>
  <text x="100" y="201.0" class="mono m" font-size="12" text-anchor="end">150</text>
  <line x1="110" y1="145.3" x2="990" y2="145.3" stroke="rgba(151,149,181,0.10)" stroke-width="1"/>
  <text x="100" y="150.3" class="mono m" font-size="12" text-anchor="end">160</text>
  <polygon fill="#9795B5" fill-opacity="0.15" points="159.6,317.8 164.4,317.8 169.3,317.8 174.1,317.8 178.9,317.8 183.7,317.8 188.6,317.8 193.4,317.8 198.2,317.8 203.0,317.8 207.9,317.8 212.7,317.8 217.5,317.8 222.3,317.8 227.1,317.8 232.0,317.8 236.8,317.8 241.6,317.8 246.4,317.8 251.3,317.8 256.1,317.8 260.9,317.8 265.7,317.8 270.6,317.8 275.4,317.8 280.2,317.8 285.0,317.8 289.9,317.8 294.7,317.8 299.5,317.8 304.3,317.8 309.2,317.8 314.0,317.8 318.8,317.8 323.6,317.8 328.4,317.8 333.3,317.8 338.1,317.8 342.9,317.8 347.7,317.8 352.6,317.8 357.4,317.8 362.2,317.8 367.0,317.8 371.9,317.8 376.7,317.8 381.5,317.8 386.3,317.8 391.2,317.8 396.0,308.6 400.8,308.6 405.6,308.6 410.5,308.6 415.3,308.6 420.1,308.6 424.9,308.6 429.7,308.6 434.6,308.6 439.4,308.6 444.2,308.6 449.0,308.6 453.9,302.9 458.7,302.9 463.5,302.9 468.3,302.9 473.2,302.9 478.0,302.9 482.8,297.3 487.6,297.3 492.5,297.3 497.3,297.3 502.1,297.3 506.9,297.3 511.8,297.3 516.6,297.3 521.4,297.3 526.2,297.3 531.0,297.3 535.9,297.3 540.7,263.5 545.5,263.5 550.3,263.5 555.2,263.5 560.0,263.5 564.8,263.5 569.6,263.5 574.5,263.5 579.3,263.5 584.1,263.5 588.9,263.5 593.8,263.5 598.6,263.5 603.4,232.3 608.2,232.3 613.1,232.3 617.9,232.3 622.7,232.3 627.5,232.3 632.3,232.3 637.2,232.3 642.0,232.3 646.8,232.3 651.6,232.3 656.5,232.3 661.3,232.3 666.1,232.3 670.9,221.0 675.8,221.0 680.6,221.0 685.4,221.0 690.2,209.9 695.1,209.9 699.9,209.9 704.7,209.9 709.5,209.9 714.4,209.9 719.2,209.9 724.0,205.5 728.8,205.5 733.6,205.5 738.5,205.5 743.3,205.5 748.1,205.5 752.9,205.5 757.8,205.5 762.6,205.5 767.4,196.0 772.2,196.0 777.1,196.0 781.9,196.0 786.7,196.0 791.5,196.0 796.4,196.0 801.2,196.0 806.0,194.9 810.8,194.9 815.7,194.9 820.5,194.9 825.3,194.9 830.1,194.9 834.9,178.5 839.8,178.5 844.6,178.5 849.4,178.5 854.2,174.8 859.1,174.8 863.9,174.8 868.7,174.8 873.5,174.8 878.4,174.8 883.2,174.8 888.0,174.8 892.8,166.2 897.7,166.2 902.5,162.4 907.3,162.4 912.1,156.8 917.0,156.8 921.8,156.8 926.6,156.8 931.4,156.8 936.2,156.8 941.1,156.8 945.9,148.6 950.7,148.6 955.5,148.6 960.4,148.6 965.2,148.6 970.0,148.6 974.8,148.6 979.7,148.6 984.5,148.6 989.3,148.6 990.0,148.6 990.0,187.9 989.3,187.9 984.5,187.9 979.7,187.9 974.8,187.9 970.0,187.9 965.2,187.9 960.4,187.9 955.5,187.9 950.7,187.9 945.9,187.9 941.1,187.9 936.2,205.0 931.4,205.0 926.6,205.0 921.8,205.0 917.0,205.0 912.1,205.0 907.3,205.0 902.5,205.0 897.7,205.0 892.8,205.0 888.0,205.0 883.2,205.0 878.4,213.9 873.5,213.9 868.7,213.9 863.9,213.9 859.1,213.9 854.2,213.9 849.4,213.9 844.6,213.9 839.8,217.2 834.9,217.2 830.1,217.2 825.3,217.2 820.5,217.2 815.7,217.2 810.8,217.2 806.0,217.2 801.2,217.2 796.4,217.2 791.5,217.2 786.7,217.2 781.9,217.2 777.1,217.2 772.2,217.2 767.4,217.2 762.6,217.2 757.8,217.2 752.9,235.6 748.1,235.6 743.3,235.6 738.5,235.6 733.6,235.6 728.8,235.6 724.0,235.6 719.2,235.6 714.4,247.4 709.5,247.4 704.7,247.4 699.9,247.4 695.1,247.4 690.2,247.4 685.4,247.4 680.6,247.4 675.8,247.4 670.9,247.4 666.1,247.4 661.3,247.4 656.5,247.4 651.6,247.4 646.8,247.4 642.0,247.4 637.2,247.4 632.3,247.4 627.5,247.4 622.7,281.5 617.9,281.5 613.1,281.5 608.2,291.5 603.4,291.5 598.6,300.4 593.8,300.4 588.9,300.4 584.1,300.4 579.3,300.4 574.5,300.4 569.6,300.4 564.8,300.4 560.0,300.4 555.2,300.4 550.3,300.4 545.5,300.4 540.7,302.2 535.9,302.2 531.0,302.2 526.2,302.2 521.4,302.2 516.6,302.2 511.8,302.2 506.9,302.2 502.1,302.2 497.3,319.0 492.5,319.0 487.6,319.0 482.8,319.0 478.0,319.0 473.2,319.0 468.3,325.6 463.5,325.6 458.7,325.6 453.9,325.6 449.0,325.6 444.2,334.6 439.4,334.6 434.6,359.6 429.7,359.6 424.9,359.6 420.1,359.6 415.3,359.6 410.5,359.6 405.6,359.6 400.8,359.6 396.0,359.6 391.2,359.6 386.3,359.6 381.5,359.6 376.7,359.6 371.9,359.6 367.0,359.6 362.2,359.6 357.4,359.6 352.6,359.6 347.7,359.6 342.9,361.2 338.1,361.2 333.3,361.2 328.4,361.2 323.6,361.2 318.8,366.5 314.0,366.5 309.2,366.5 304.3,366.5 299.5,366.5 294.7,366.5 289.9,366.5 285.0,366.5 280.2,366.5 275.4,366.5 270.6,366.5 265.7,366.5 260.9,366.5 256.1,366.5 251.3,366.5 246.4,382.8 241.6,402.1 236.8,402.1 232.0,402.1 227.1,402.1 222.3,402.1 217.5,402.1 212.7,402.1 207.9,402.1 203.0,402.1 198.2,402.1 193.4,402.1 188.6,402.1 183.7,402.1 178.9,402.1 174.1,402.1 169.3,402.1 164.4,402.1 159.6,402.1"/>
  <polyline fill="none" stroke="#E61E25" stroke-width="2.5" points="159.6,317.8 392.5,317.8 392.5,308.6 453.2,308.6 453.2,302.9 479.4,302.9 479.4,297.3 537.3,297.3 537.3,267.1 537.3,267.1 537.3,263.5 603.4,263.5 603.4,232.3 670.9,232.3 670.9,221.0 686.1,221.0 686.1,209.9 724.0,209.9 724.0,205.5 764.0,205.5 764.0,196.0 806.0,196.0 806.0,194.9 834.9,194.9 834.9,178.5 850.8,178.5 850.8,177.1 850.8,177.1 850.8,174.8 889.4,174.8 889.4,166.2 899.0,166.2 899.0,162.4 908.7,162.4 908.7,156.8 942.5,156.8 942.5,154.4 942.5,154.4 942.5,148.6 990.0,148.6"/>
  <polyline fill="none" stroke="#35E0D8" stroke-width="2.5" points="147.2,471.5 147.2,471.5 147.2,451.3 147.2,451.3 147.2,416.1 147.2,416.1 147.2,402.1 246.4,402.1 246.4,382.8 247.8,382.8 247.8,366.5 320.2,366.5 320.2,361.2 347.1,361.2 347.1,359.6 435.3,359.6 435.3,341.9 436.0,341.9 436.0,334.6 449.0,334.6 449.0,325.6 470.4,325.6 470.4,319.0 502.1,319.0 502.1,302.2 542.1,302.2 542.1,300.4 600.0,300.4 600.0,291.5 609.6,291.5 609.6,281.5 626.8,281.5 626.8,247.4 715.0,247.4 715.0,235.6 755.0,235.6 755.0,217.2 843.9,217.2 843.9,213.9 883.2,213.9 883.2,205.0 940.4,205.0 940.4,187.9 990.0,187.9"/>
  <circle cx="159.6" cy="317.8" r="3.5" fill="#E61E25"/>
  <text x="154.6" y="305.8" class="mono red" font-size="12" text-anchor="start">GPT-4</text>
  <circle cx="392.5" cy="308.6" r="3.5" fill="#E61E25"/>
  <circle cx="453.2" cy="302.9" r="3.5" fill="#E61E25"/>
  <circle cx="479.4" cy="297.3" r="3.5" fill="#E61E25"/>
  <circle cx="537.3" cy="267.1" r="3.5" fill="#E61E25"/>
  <text x="532.3" y="255.1" class="mono red" font-size="12" text-anchor="start">o1-preview</text>
  <circle cx="537.3" cy="263.5" r="3.5" fill="#E61E25"/>
  <circle cx="603.4" cy="232.3" r="3.5" fill="#E61E25"/>
  <circle cx="670.9" cy="221.0" r="3.5" fill="#E61E25"/>
  <circle cx="686.1" cy="209.9" r="3.5" fill="#E61E25"/>
  <circle cx="724.0" cy="205.5" r="3.5" fill="#E61E25"/>
  <circle cx="764.0" cy="196.0" r="3.5" fill="#E61E25"/>
  <text x="759.0" y="184.0" class="mono red" font-size="12" text-anchor="start">GPT-5</text>
  <circle cx="806.0" cy="194.9" r="3.5" fill="#E61E25"/>
  <circle cx="834.9" cy="178.5" r="3.5" fill="#E61E25"/>
  <circle cx="850.8" cy="177.1" r="3.5" fill="#E61E25"/>
  <circle cx="850.8" cy="174.8" r="3.5" fill="#E61E25"/>
  <circle cx="889.4" cy="166.2" r="3.5" fill="#E61E25"/>
  <circle cx="899.0" cy="162.4" r="3.5" fill="#E61E25"/>
  <circle cx="908.7" cy="156.8" r="3.5" fill="#E61E25"/>
  <circle cx="942.5" cy="154.4" r="3.5" fill="#E61E25"/>
  <circle cx="942.5" cy="148.6" r="3.5" fill="#E61E25"/>
  <text x="882.5" y="136.6" class="mono red" font-size="12" text-anchor="start">GPT-5.5 Pro</text>
  <circle cx="147.2" cy="471.5" r="3.5" fill="#35E0D8"/>
  <circle cx="147.2" cy="451.3" r="3.5" fill="#35E0D8"/>
  <circle cx="147.2" cy="416.1" r="3.5" fill="#35E0D8"/>
  <circle cx="147.2" cy="402.1" r="3.5" fill="#35E0D8"/>
  <text x="153.2" y="418.1" class="mono cy" font-size="12">LLaMA-65B</text>
  <circle cx="246.4" cy="382.8" r="3.5" fill="#35E0D8"/>
  <circle cx="247.8" cy="366.5" r="3.5" fill="#35E0D8"/>
  <circle cx="320.2" cy="361.2" r="3.5" fill="#35E0D8"/>
  <circle cx="347.1" cy="359.6" r="3.5" fill="#35E0D8"/>
  <circle cx="435.3" cy="341.9" r="3.5" fill="#35E0D8"/>
  <circle cx="436.0" cy="334.6" r="3.5" fill="#35E0D8"/>
  <circle cx="449.0" cy="325.6" r="3.5" fill="#35E0D8"/>
  <circle cx="470.4" cy="319.0" r="3.5" fill="#35E0D8"/>
  <circle cx="502.1" cy="302.2" r="3.5" fill="#35E0D8"/>
  <text x="508.1" y="318.2" class="mono cy" font-size="12">Llama 3.1-405B</text>
  <circle cx="542.1" cy="300.4" r="3.5" fill="#35E0D8"/>
  <circle cx="600.0" cy="291.5" r="3.5" fill="#35E0D8"/>
  <circle cx="609.6" cy="281.5" r="3.5" fill="#35E0D8"/>
  <circle cx="626.8" cy="247.4" r="3.5" fill="#35E0D8"/>
  <text x="632.8" y="263.4" class="mono cy" font-size="12">DeepSeek-R1</text>
  <circle cx="715.0" cy="235.6" r="3.5" fill="#35E0D8"/>
  <circle cx="755.0" cy="217.2" r="3.5" fill="#35E0D8"/>
  <circle cx="843.9" cy="213.9" r="3.5" fill="#35E0D8"/>
  <circle cx="883.2" cy="205.0" r="3.5" fill="#35E0D8"/>
  <circle cx="940.4" cy="187.9" r="3.5" fill="#35E0D8"/>
  <text x="946.4" y="203.9" class="mono cy" font-size="12">Kimi K2.6</text>
  <line x1="915.6" y1="156.8" x2="915.6" y2="205.0" stroke="#E0A85A" stroke-width="2" stroke-dasharray="5 3"/>
  <text x="925.6" y="185.9" class="mono am" font-size="13">~10 pts &#8776; 4 mo</text>
  <text x="50" y="578" class="mono m" font-size="12">Source: Epoch AI Capabilities Index (epoch.ai/data). CC BY. Downloaded June 2026.</text>
</svg>
