<svg xmlns="http://www.w3.org/2000/svg" viewBox="0 0 1040 600" font-family="'Brockmann','Helvetica Neue',Arial,sans-serif">
  <defs>
    <style>
      @import url('https://fonts.googleapis.com/css2?family=DM+Mono:wght@400;500&amp;display=swap');
      .mono { font-family: 'DM Mono', ui-monospace, monospace; }
      .t  { fill:#fff; font-weight:700; }
      .l  { fill:#D4D2E3; }
      .m  { fill:#9795B5; }
      .red{ fill:#E61E25; }
      .cy { fill:#35E0D8; }
    </style>
  </defs>

  <rect width="1040" height="600" fill="#1D1D40"/>

  <!-- header -->
  <text x="50" y="42" class="mono cy" font-size="14" letter-spacing="3">~ COST vs CAPABILITY</text>
  <text x="50" y="78" class="t" font-size="30">Smarter models cost more &#8212; but open weights close the gap</text>
  <text x="50" y="104" class="m" font-size="15">Each circle is one model. Area &#8733; usage on OpenRouter. X axis is log scale.</text>

  <!-- legend -->
  <g font-size="14">
    <circle cx="640" cy="42" r="6" fill="#E61E25" fill-opacity="0.7"/><text x="652" y="46" class="l">closed</text>
    <circle cx="730" cy="42" r="6" fill="#35E0D8" fill-opacity="0.7"/><text x="742" y="46" class="l">open weights</text>
  </g>

  <!-- axes -->
  <line x1="110" y1="120" x2="110" y2="510" stroke="#9795B5" stroke-width="1.2"/>
  <line x1="110" y1="510" x2="990" y2="510" stroke="#9795B5" stroke-width="1.2"/>
  <text x="100" y="112" class="mono m" font-size="13" text-anchor="end">ECI &#8593;</text>
  <text x="995" y="530" class="mono m" font-size="13">&#36;/Mtok &#8594;</text>
  <line x1="168.4" y1="120" x2="168.4" y2="510" stroke="rgba(151,149,181,0.12)" stroke-width="1"/>
  <text x="168.4" y="530" class="mono m" font-size="12" text-anchor="middle">&#36;0.05</text>
  <line x1="256.7" y1="120" x2="256.7" y2="510" stroke="rgba(151,149,181,0.12)" stroke-width="1"/>
  <text x="256.7" y="530" class="mono m" font-size="12" text-anchor="middle">&#36;0.1</text>
  <line x1="345.0" y1="120" x2="345.0" y2="510" stroke="rgba(151,149,181,0.12)" stroke-width="1"/>
  <text x="345.0" y="530" class="mono m" font-size="12" text-anchor="middle">&#36;0.2</text>
  <line x1="461.7" y1="120" x2="461.7" y2="510" stroke="rgba(151,149,181,0.12)" stroke-width="1"/>
  <text x="461.7" y="530" class="mono m" font-size="12" text-anchor="middle">&#36;0.5</text>
  <line x1="550.0" y1="120" x2="550.0" y2="510" stroke="rgba(151,149,181,0.12)" stroke-width="1"/>
  <text x="550.0" y="530" class="mono m" font-size="12" text-anchor="middle">&#36;1</text>
  <line x1="638.3" y1="120" x2="638.3" y2="510" stroke="rgba(151,149,181,0.12)" stroke-width="1"/>
  <text x="638.3" y="530" class="mono m" font-size="12" text-anchor="middle">&#36;2</text>
  <line x1="755.0" y1="120" x2="755.0" y2="510" stroke="rgba(151,149,181,0.12)" stroke-width="1"/>
  <text x="755.0" y="530" class="mono m" font-size="12" text-anchor="middle">&#36;5</text>
  <line x1="843.3" y1="120" x2="843.3" y2="510" stroke="rgba(151,149,181,0.12)" stroke-width="1"/>
  <text x="843.3" y="530" class="mono m" font-size="12" text-anchor="middle">&#36;10</text>
  <line x1="983.3" y1="120" x2="983.3" y2="510" stroke="rgba(151,149,181,0.12)" stroke-width="1"/>
  <text x="983.3" y="530" class="mono m" font-size="12" text-anchor="middle">&#36;30</text>
  <line x1="110" y1="461.2" x2="990" y2="461.2" stroke="rgba(151,149,181,0.10)" stroke-width="1"/>
  <text x="100" y="466.2" class="mono m" font-size="12" text-anchor="end">130</text>
  <line x1="110" y1="412.5" x2="990" y2="412.5" stroke="rgba(151,149,181,0.10)" stroke-width="1"/>
  <text x="100" y="417.5" class="mono m" font-size="12" text-anchor="end">135</text>
  <line x1="110" y1="363.8" x2="990" y2="363.8" stroke="rgba(151,149,181,0.10)" stroke-width="1"/>
  <text x="100" y="368.8" class="mono m" font-size="12" text-anchor="end">140</text>
  <line x1="110" y1="315.0" x2="990" y2="315.0" stroke="rgba(151,149,181,0.10)" stroke-width="1"/>
  <text x="100" y="320.0" class="mono m" font-size="12" text-anchor="end">145</text>
  <line x1="110" y1="266.2" x2="990" y2="266.2" stroke="rgba(151,149,181,0.10)" stroke-width="1"/>
  <text x="100" y="271.2" class="mono m" font-size="12" text-anchor="end">150</text>
  <line x1="110" y1="217.5" x2="990" y2="217.5" stroke="rgba(151,149,181,0.10)" stroke-width="1"/>
  <text x="100" y="222.5" class="mono m" font-size="12" text-anchor="end">155</text>
  <line x1="110" y1="168.8" x2="990" y2="168.8" stroke="rgba(151,149,181,0.10)" stroke-width="1"/>
  <text x="100" y="173.8" class="mono m" font-size="12" text-anchor="end">160</text>
  <circle cx="513.4" cy="278.5" r="18.0" fill="#E61E25" fill-opacity="0.55" stroke="#E61E25" stroke-width="1"/>
  <circle cx="755.0" cy="186.1" r="14.0" fill="#E61E25" fill-opacity="0.55" stroke="#E61E25" stroke-width="1"/>
  <circle cx="666.7" cy="206.5" r="13.7" fill="#E61E25" fill-opacity="0.55" stroke="#E61E25" stroke-width="1"/>
  <circle cx="601.7" cy="204.7" r="12.6" fill="#E61E25" fill-opacity="0.55" stroke="#E61E25" stroke-width="1"/>
  <circle cx="345.0" cy="303.0" r="12.5" fill="#E61E25" fill-opacity="0.55" stroke="#E61E25" stroke-width="1"/>
  <circle cx="406.8" cy="275.2" r="11.2" fill="#E61E25" fill-opacity="0.55" stroke="#E61E25" stroke-width="1"/>
  <circle cx="336.7" cy="313.4" r="10.3" fill="#E61E25" fill-opacity="0.55" stroke="#E61E25" stroke-width="1"/>
  <circle cx="396.6" cy="360.0" r="9.3" fill="#E61E25" fill-opacity="0.55" stroke="#E61E25" stroke-width="1"/>
  <circle cx="433.3" cy="283.6" r="9.2" fill="#35E0D8" fill-opacity="0.55" stroke="#35E0D8" stroke-width="1"/>
  <circle cx="419.8" cy="467.1" r="9.0" fill="#35E0D8" fill-opacity="0.55" stroke="#35E0D8" stroke-width="1"/>
  <circle cx="638.3" cy="201.6" r="7.7" fill="#E61E25" fill-opacity="0.55" stroke="#E61E25" stroke-width="1"/>
  <circle cx="449.7" cy="366.3" r="5.6" fill="#35E0D8" fill-opacity="0.55" stroke="#35E0D8" stroke-width="1"/>
  <circle cx="500.9" cy="250.6" r="5.3" fill="#35E0D8" fill-opacity="0.55" stroke="#35E0D8" stroke-width="1"/>
  <circle cx="201.8" cy="450.0" r="5.1" fill="#35E0D8" fill-opacity="0.55" stroke="#35E0D8" stroke-width="1"/>
  <circle cx="638.3" cy="472.5" r="5.1" fill="#35E0D8" fill-opacity="0.55" stroke="#35E0D8" stroke-width="1"/>
  <circle cx="983.3" cy="175.1" r="4.9" fill="#E61E25" fill-opacity="0.55" stroke="#E61E25" stroke-width="1"/>
  <circle cx="755.0" cy="214.8" r="4.8" fill="#E61E25" fill-opacity="0.55" stroke="#E61E25" stroke-width="1"/>
  <circle cx="690.0" cy="241.1" r="4.6" fill="#E61E25" fill-opacity="0.55" stroke="#E61E25" stroke-width="1"/>
  <circle cx="983.3" cy="190.9" r="4.5" fill="#E61E25" fill-opacity="0.55" stroke="#E61E25" stroke-width="1"/>
  <circle cx="755.0" cy="206.0" r="4.2" fill="#E61E25" fill-opacity="0.55" stroke="#E61E25" stroke-width="1"/>
  <text x="974.4" y="171.1" class="mono red" font-size="11" text-anchor="end">GPT-5.5 Pro</text>
  <text x="773.0" y="182.1" class="mono red" font-size="11" text-anchor="start">GPT-5.5</text>
  <text x="618.3" y="200.7" class="mono red" font-size="11" text-anchor="start">Gem 3.5 Flash</text>
  <text x="763.2" y="202.0" class="mono red" font-size="11" text-anchor="start">Opus 4.7</text>
  <text x="684.4" y="202.5" class="mono red" font-size="11" text-anchor="start">GPT-5.4</text>
  <text x="763.9" y="210.8" class="mono red" font-size="11" text-anchor="start">Opus 4.6</text>
  <text x="698.5" y="237.1" class="mono red" font-size="11" text-anchor="start">Sonnet 4.6</text>
  <text x="510.2" y="246.6" class="mono cy" font-size="11" text-anchor="start">Kimi K2.6</text>
  <text x="422.0" y="271.2" class="mono red" font-size="11" text-anchor="start">Qwen 3.6+</text>
  <text x="535.4" y="274.5" class="mono red" font-size="11" text-anchor="start">GPT-5.4 mini</text>
  <text x="446.5" y="279.6" class="mono cy" font-size="11" text-anchor="start">Kimi K2.5</text>
  <text x="361.5" y="299.0" class="mono red" font-size="11" text-anchor="start">GPT-5.4 nano</text>
  <text x="410.0" y="356.0" class="mono red" font-size="11" text-anchor="start">Gem 2.5 Flash</text>
  <text x="459.3" y="362.3" class="mono cy" font-size="11" text-anchor="start">Qwen3 235B</text>
  <text x="210.9" y="446.0" class="mono cy" font-size="11" text-anchor="start">Phi-4</text>
  <text x="50" y="582" class="mono m" font-size="11">Sources: Epoch AI Capabilities Index (epoch.ai/data), OpenRouter API (openrouter.ai). June 2026.</text>
</svg>
